<svg xmlns="http://www.w3.org/2000/svg" xmlns:xlink="http://www.w3.org/1999/xlink" x="0px" y="0px" width="32px" height="32px" viewBox="0 0 32 32"><g transform="translate(0, 0)"><path fill="#444444" d="M19.749,5.722c-1.865,0-3.388,0.524-4.572,1.571c-1.184,1.047-1.974,2.631-2.37,4.751L22,12v3h-9.49
	c-0.063,0.82-0.042,1.502,0,2.524h8.092v2.862h-7.755c0.847,3.89,3.253,5.836,7.22,5.836c1.891,0,3.827-0.386,5.811-1.16v3.797
	C24.145,29.62,22.129,30,19.828,30c-3.187,0-5.775-0.823-7.764-2.469c-1.991-1.646-3.29-4.027-3.897-7.145H5v-2.862h2.848
	c-0.062-0.835-0.082-1.398,0-2.524H5v-3l3.126,0.044c0.503-3.129,1.765-5.586,3.788-7.369C13.937,2.892,16.549,2,19.749,2
	c2.644,0,5.011,0.549,7.1,1.646l-1.666,3.498C23.146,6.196,21.335,5.722,19.749,5.722z"></path></g></svg>