<svg xmlns="http://www.w3.org/2000/svg" xmlns:xlink="http://www.w3.org/1999/xlink" x="0px" y="0px" width="32px" height="32px" viewBox="0 0 32 32"><g transform="translate(0, 0)"><path fill="#444444" d="M29,1H3C1.346,1,0,2.346,0,4v19c0,1.654,1.346,3,3,3h9v3H9c-0.552,0-1,0.448-1,1s0.448,1,1,1h14
	c0.552,0,1-0.448,1-1s-0.448-1-1-1h-3v-3h9c1.654,0,3-1.346,3-3V4C32,2.346,30.654,1,29,1z M30,20H2V4c0-0.551,0.449-1,1-1h26
	c0.551,0,1,0.449,1,1V20z"></path>
<circle data-color="color-2" fill="#444444" cx="16" cy="6" r="1"></circle></g></svg>