<svg xmlns="http://www.w3.org/2000/svg" xmlns:xlink="http://www.w3.org/1999/xlink" x="0px" y="0px" width="48px" height="48px" viewBox="0 0 48 48"><g transform="translate(0, 0)"><path data-color="color-2" fill="#444444" d="M38,29c-0.553,0-1,0.447-1,1v15H3V11h15c0.553,0,1-0.447,1-1s-0.447-1-1-1H2
	c-0.553,0-1,0.447-1,1v36c0,0.553,0.447,1,1,1h36c0.553,0,1-0.447,1-1V30C39,29.447,38.553,29,38,29z"></path>
<path fill="#444444" d="M33.586,6L14.293,25.293C14.105,25.48,14,25.734,14,26v7c0,0.553,0.447,1,1,1h7
	c0.266,0,0.52-0.105,0.707-0.293L42,14.414L33.586,6z"></path>
<path data-color="color-2" fill="#444444" d="M46.707,8.293l-7-7c-0.391-0.391-1.023-0.391-1.414,0L35,4.586L43.414,13l3.293-3.293
	C47.098,9.316,47.098,8.684,46.707,8.293z"></path></g></svg>