<svg xmlns="http://www.w3.org/2000/svg" xmlns:xlink="http://www.w3.org/1999/xlink" x="0px" y="0px" width="32px" height="32px" viewBox="0 0 32 32"><g transform="translate(0, 0)"><path fill="#444444" d="M31,0h-6c-0.265,0-0.518,0.104-0.705,0.291L11.58,12.947c-3.126-0.628-6.403,0.341-8.669,2.605
	c-3.732,3.732-3.732,9.804,0,13.536c1.866,1.866,4.317,2.799,6.768,2.799c2.451,0,4.902-0.933,6.769-2.799
	c2.267-2.266,3.238-5.543,2.604-8.673l2.662-2.715C21.897,17.513,22,17.262,22,17v-3h3c0.553,0,1-0.448,1-1v-3h3
	c0.266,0,0.52-0.105,0.707-0.293l2-2C31.895,7.52,32,7.265,32,7V1C32,0.448,31.553,0,31,0z M11.121,25.121
	c-1.172,1.172-3.071,1.172-4.243,0c-1.172-1.172-1.172-3.071,0-4.243s3.071-1.172,4.243,0S12.293,23.95,11.121,25.121z"></path></g></svg>