<svg xmlns="http://www.w3.org/2000/svg" xmlns:xlink="http://www.w3.org/1999/xlink" x="0px" y="0px" width="32px" height="32px" viewBox="0 0 32 32"><g transform="translate(0, 0)"><path fill="#444444" d="M24,0H8C6.346,0,5,1.346,5,3v26c0,1.654,1.346,3,3,3h16c1.654,0,3-1.346,3-3V3C27,1.346,25.654,0,24,0z
	 M25,7v16c0,0.552-0.448,1-1,1H8c-0.552,0-1-0.448-1-1V7c0-0.552,0.448-1,1-1h16C24.552,6,25,6.448,25,7z"></path>
<circle data-color="color-2" fill="#444444" cx="16" cy="12" r="2"></circle>
<path data-color="color-2" fill="#444444" d="M21,20H11v0c0-2.209,1.791-4,4-4h2C19.209,16,21,17.791,21,20L21,20z"></path></g></svg>