<svg xmlns="http://www.w3.org/2000/svg" xmlns:xlink="http://www.w3.org/1999/xlink" x="0px" y="0px" width="32px" height="32px" viewBox="0 0 32 32"><g stroke-width="2" transform="translate(0, 0)"><polygon fill="none" stroke="#444444" stroke-width="2" stroke-linecap="square" stroke-miterlimit="10" points="28,31 4,31 4,2 
	9,4 12,2 16,4 20,2 23,4 28,2 " stroke-linejoin="miter"></polygon>
<path data-color="color-2" fill="none" stroke="#444444" stroke-width="2" stroke-linecap="square" stroke-miterlimit="10" d="M13,20.5
	L13,20.5c0,1.4,1.1,2.5,2.5,2.5h1c1.4,0,2.5-1.1,2.5-2.5l0,0c0-3.5-6-1.5-6-5l0,0c0-1.4,1.1-2.5,2.5-2.5h1c1.4,0,2.5,1.1,2.5,2.5" stroke-linejoin="miter"></path>
<line data-cap="butt" data-color="color-2" fill="none" stroke="#444444" stroke-width="2" stroke-miterlimit="10" x1="16" y1="23" x2="16" y2="26" stroke-linejoin="miter" stroke-linecap="butt"></line>
<line data-cap="butt" data-color="color-2" fill="none" stroke="#444444" stroke-width="2" stroke-miterlimit="10" x1="16" y1="10" x2="16" y2="13" stroke-linejoin="miter" stroke-linecap="butt"></line></g></svg>