<svg xmlns="http://www.w3.org/2000/svg" xmlns:xlink="http://www.w3.org/1999/xlink" x="0px" y="0px" width="32px" height="32px" viewBox="0 0 32 32"><g transform="translate(0, 0)"><path fill="#444444" d="M29,13h-1.4c-0.3-1.1-0.7-2.1-1.3-3.1l1-1c1.2-1.2,1.2-3.1,0-4.2c-1.1-1.1-3.1-1.1-4.2,0l-1,1
	c-1-0.6-2-1-3.1-1.3V3c0-1.7-1.3-3-3-3s-3,1.3-3,3v1.4c-1.1,0.3-2.1,0.7-3.1,1.3l-1-1c-1.1-1.1-3.1-1.1-4.2,0
	c-1.2,1.2-1.2,3.1,0,4.2l1,1c-0.6,1-1,2-1.3,3.1H3c-1.7,0-3,1.3-3,3s1.3,3,3,3h1.4c0.3,1.1,0.7,2.1,1.3,3.1l-1,1
	c-1.2,1.2-1.2,3.1,0,4.2c1.1,1.1,3.1,1.1,4.2,0l1-1c1,0.6,2,1,3.1,1.3V29c0,1.7,1.3,3,3,3s3-1.3,3-3v-1.4c1.1-0.3,2.1-0.7,3.1-1.3
	l1,1c1.1,1.1,3.1,1.1,4.2,0c1.2-1.2,1.2-3.1,0-4.2l-1-1c0.6-1,1-2,1.3-3.1H29c1.7,0,3-1.3,3-3S30.7,13,29,13z M16,21
	c-2.8,0-5-2.2-5-5s2.2-5,5-5s5,2.2,5,5S18.8,21,16,21z"></path></g></svg>