<svg xmlns="http://www.w3.org/2000/svg" viewBox="45 40 63 40"><defs>
    <style>.a{fill:#444444;}.b{fill:#fff;}</style></defs>
    <path class="a" d="M85.93,69.63c1.72-.86,3.39-1.8,5.14-2.53a3.52,3.52,0,0,1,4.59,2,3.47,3.47,0,0,1-1.42,4.52c-2.48,1.4-5,2.7-7.57,4a3.37,3.37,0,0,1-3.87-.77c-1.67-1.4-3.32-2.84-5-4.27a2.34,2.34,0,0,0-2.75,0c-1.7,1.48-3.38,3-5.13,4.41a3.33,3.33,0,0,1-3.81.58c-2.42-1.23-4.86-2.43-7.22-3.76a3.54,3.54,0,0,1-1.39-5.17,3.74,3.74,0,0,1,5-1.26c1.26.64,2.51,1.31,3.76,2a1.34,1.34,0,0,0,1.92-.93,15.18,15.18,0,0,0,0-2.52.79.79,0,0,0-.47-.54,49.4,49.4,0,0,0-17.26-2.81,9.66,9.66,0,0,0-1.67.19,2.56,2.56,0,0,1-2.75-1.25,2,2,0,0,1,.91-3,7.94,7.94,0,0,1,2.66-.69A53.14,53.14,0,0,1,67.54,60.1a5.1,5.1,0,0,1,2.84,2.41A7.51,7.51,0,0,0,83.3,61.43a2.07,2.07,0,0,1,1.16-1A105.71,105.71,0,0,1,95,58.12a81,81,0,0,1,9.52-.34A2.59,2.59,0,0,1,107,59.23a2.16,2.16,0,0,1-.25,2.45,2.44,2.44,0,0,1-2.45,1A31.89,31.89,0,0,0,93,63.33c-2.61.57-5.2,1.3-7.79,2a.85.85,0,0,0-.54.37A3.57,3.57,0,0,0,85.93,69.63Z"/>
    <path class="a" d="M84,59.51c0-.9,0-1.81,0-2.71a7.3,7.3,0,0,0-1.58-4.55c-.16-.23-.31-.7-.19-.85A9.36,9.36,0,0,0,84,45a1.62,1.62,0,0,1,1,1.62c0,.62,0,1.23,0,2,1.92-.48,3.65-1,5.42-1.35a42.13,42.13,0,0,1,14.67-.89,2.45,2.45,0,0,1,2.13,2.52,2.6,2.6,0,0,1-2.81,2.23c-2.65,0-5.31-.13-7.94.08a49.6,49.6,0,0,0-10.9,2.38c-.71.22-1,.55-1,1.33a25.05,25.05,0,0,1,0,3.15,8.41,8.41,0,0,1-.37,1.55Z"/>
    <path class="a" d="M67.78,48.46c.33-1.11-.28-2.52.9-3.43.25,1.33.4,2.63.75,3.87a18.75,18.75,0,0,0,1.08,2.23c.13.29.23.79.08,1a8.44,8.44,0,0,0-1.52,7.23c0,.06,0,.13-.28.28a8.18,8.18,0,0,1-.48-1.67,31.91,31.91,0,0,1,0-3.25c0-.56-.11-.92-.72-1.08-2-.5-3.89-1.05-5.85-1.56a37.93,37.93,0,0,0-3.92-.93,27.1,27.1,0,0,0-4-.25c-1.74,0-3.48.11-5.22.2a2.52,2.52,0,0,1-2.66-1.59,2.39,2.39,0,0,1,.9-2.77,3.18,3.18,0,0,1,1.26-.42,36,36,0,0,1,11.38.39C62.22,47.16,65,47.85,67.78,48.46Z"/>
    <path class="a" d="M76.94,55.25a43.83,43.83,0,0,1,4.67,1.15c1.59.56,1.89,1.39,1.52,3.05a6.77,6.77,0,0,1-12,2.88,6.78,6.78,0,0,1-1.1-2.2c-.83-2.67,0-3.46,2.39-4.21A31,31,0,0,1,76.94,55.25Zm4.94,1.86c-2,0-3.95,0-5.89,0-.3,0-.61.45-.86.74s-.21.62-.43.81c-.64.57-1.33,1.08-2,1.61,1.41,1,1.75.93,2.62-.34,1-1.49,1.3-1.49,2.3,0,.08.12.11.3.21.35.42.21,1,.63,1.28.51C81.26,60.09,82,59.88,81.88,57.11Zm-7.57.06H70.9a16.08,16.08,0,0,0,.56,2.35c.14.34.58,1,1.08.36C73.19,59.06,73.7,58.12,74.31,57.17Z"/>
    <path class="a" d="M83.18,44.62a15.52,15.52,0,0,0-13.35,0,5.87,5.87,0,0,1,2.45-4.51,6.76,6.76,0,0,1,10.9,4.52Z"/>
    <path class="a" d="M83.15,56.23a14.88,14.88,0,0,0-13.33,0,6.13,6.13,0,0,1,2.84-4.84,6.71,6.71,0,0,1,10.49,4.8Z"/>
    <path class="a" d="M72.64,48.27a2.71,2.71,0,0,0,.52.7,7.76,7.76,0,0,0,1.21.56L71.48,51.1a5.59,5.59,0,0,1-1.7-4.76c.12-1.05,1.07-1.51,2-1.8a15.35,15.35,0,0,1,9.38,0,2.53,2.53,0,0,1,2,3.4A5.88,5.88,0,0,1,81.5,51.1l-2.91-1.55c.8-.37,1.54-.65,2.22-1a2.68,2.68,0,0,0,1.12-2.61.67.67,0,0,0-.47-.41q-2.73,0-5.46,0a2.57,2.57,0,0,0-.78.28l-.54.2c-.15-.16-.3-.46-.46-.46-1,0-2.07,0-3.32,0,.19.88.3,1.59.5,2.27s.67.8,1.28.53Z"/>
    <path class="a" d="M78.38,49.48H74.57a23,23,0,0,1,1.52-2,1,1,0,0,1,.91.11A19.58,19.58,0,0,1,78.38,49.48Z"/>
    <path class="a" d="M74.68,46l.54-.2a2.84,2.84,0,0,1-2.58,2.48l0,0C72.71,47,73.63,46.43,74.68,46Z"/>
    <path class="b" d="M81.88,57.11c.09,2.76-.62,3-2.76,3.73-.33.12-.86-.31-1.28-.51-.1-.05-.14-.24-.21-.35-1-1.5-1.27-1.5-2.3,0-.88,1.27-1.21,1.31-2.62.34.67-.53,1.36-1,2-1.61.21-.19.24-.58.43-.81s.56-.73.86-.74C77.93,57.08,79.88,57.11,81.88,57.11Z"/>
    <path class="b" d="M74.31,57.17c-.61,1-1.12,1.88-1.77,2.71-.5.64-.95,0-1.08-.36a16.08,16.08,0,0,1-.56-2.35Z"/>
    <path class="b" d="M74.68,46c-1,.45-2,1-2,2.31-.61.28-1.09.13-1.28-.53s-.31-1.39-.5-2.27c1.26,0,2.29,0,3.32,0C74.38,45.53,74.52,45.83,74.68,46Z"/>
    <path class="b" d="M81.92,45.6c.09,2.76-.62,3-2.76,3.73-.33.12-.86-.31-1.28-.51-.1-.05-.14-.24-.21-.35-1-1.5-1.27-1.5-2.3,0-.88,1.27-1.21,1.31-2.62.34.67-.53,1.36-1,2-1.61.21-.19.24-.58.43-.81s.56-.73.86-.74C78,45.57,79.92,45.6,81.92,45.6Z"/></svg>