<svg class="" xmlns="http://www.w3.org/2000/svg" xmlns:xlink="http://www.w3.org/1999/xlink" x="0px" y="0px" width="32px" height="32px" viewBox="0 0 32 32"><g transform="translate(0, 0)"><path fill="#444444" d="M31.526,7.149c-0.295-0.184-0.664-0.198-0.973-0.044L22,11.382V6c0-0.553-0.448-1-1-1H1C0.448,5,0,5.447,0,6 v20c0,0.553,0.448,1,1,1h20c0.552,0,1-0.447,1-1v-5.382l8.553,4.276c0.31,0.154,0.678,0.139,0.973-0.044 C31.82,24.668,32,24.347,32,24V8C32,7.653,31.82,7.332,31.526,7.149z M6.5,13C5.672,13,5,12.328,5,11.5S5.672,10,6.5,10 S8,10.672,8,11.5S7.328,13,6.5,13z"></path></g></svg>