<svg class="" xmlns="http://www.w3.org/2000/svg" xmlns:xlink="http://www.w3.org/1999/xlink" x="0px" y="0px" width="32px" height="32px" viewBox="0 0 32 32"><g transform="translate(0, 0)"><path fill="#444444" d="M22.419,6.814L16,2.229L9.581,6.814L8.419,5.186l7-5c0.348-0.248,0.814-0.248,1.162,0l7,5L22.419,6.814z"></path><path fill="#444444" d="M31,5H1C0.448,5,0,5.448,0,6v23c0,0.552,0.448,1,1,1h30c0.552,0,1-0.448,1-1V6C32,5.448,31.552,5,31,5z M30,28H2V7h28V28z"></path><circle data-color="color-2" fill="#444444" cx="8.5" cy="13.5" r="2.5"></circle><path data-color="color-2" fill="#444444" d="M6,26h21c0.36,0,0.693-0.194,0.87-0.507c0.178-0.313,0.173-0.698-0.013-1.007l-6-10 c-0.141-0.234-0.371-0.401-0.638-0.461c-0.266-0.061-0.547-0.008-0.774,0.144l-15,10c-0.367,0.245-0.53,0.7-0.402,1.122 C5.17,25.711,5.56,26,6,26z"></path></g></svg>