<svg xmlns="http://www.w3.org/2000/svg" xmlns:xlink="http://www.w3.org/1999/xlink" x="0px" y="0px" width="64px" height="64px" viewBox="0 0 64 64"><g transform="translate(0, 0)"><path fill="#444444" d="M28,33c8.585,0,15-8.975,15-17c0-8.271-6.729-15-15-15S13,7.729,13,16C13,24.025,19.415,33,28,33z"></path>
<path data-color="color-2" fill="#444444" d="M51,39c-6.627,0-12,5.373-12,12s5.373,12,12,12s12-5.373,12-12S57.627,39,51,39z M56,52h-4v4
	c0,0.552-0.448,1-1,1s-1-0.448-1-1v-4h-4c-0.552,0-1-0.448-1-1s0.448-1,1-1h4v-4c0-0.552,0.448-1,1-1s1,0.448,1,1v4h4
	c0.552,0,1,0.448,1,1S56.552,52,56,52z"></path>
<path fill="#444444" d="M37,51c0-4.263,1.912-8.074,4.917-10.642C38.142,39.561,33.525,39,28,39
	c-11.118,0-18.567,2.269-22.858,4.173C2.625,44.288,1,46.798,1,49.567V60c0,0.552,0.448,1,1,1h39.211C38.615,58.459,37,54.92,37,51z
	"></path></g></svg>