<svg class="" xmlns="http://www.w3.org/2000/svg" xmlns:xlink="http://www.w3.org/1999/xlink" x="0px" y="0px" width="32px" height="32px" viewBox="0 0 32 32"><g transform="translate(0, 0)"><path fill="#df4d4d" d="M31,0H1C0.447,0,0,0.447,0,1v30c0,0.553,0.447,1,1,1h30c0.553,0,1-0.447,1-1V1C32,0.447,31.553,0,31,0z M17,2h3v3h-3V2z M12,2h3v3h-3V2z M5,30H2v-3h3V30z M5,5H2V2h3V5z M10,30H7v-3h3V30z M10,5H7V2h3V5z M15,30h-3v-3h3V30z M20,30h-3 v-3h3V30z M13,21V11l8,5L13,21z M25,30h-3v-3h3V30z M25,5h-3V2h3V5z M30,30h-3v-3h3V30z M30,5h-3V2h3V5z"></path></g></svg>